<svg width="21" height="20" viewBox="0 0 21 20" fill="none" xmlns="http://www.w3.org/2000/svg">
<path d="M5.83547 15.0998L2.85798 17.5887C2.75054 17.6776 2.6201 17.7342 2.48178 17.752C2.34346 17.7698 2.20294 17.7479 2.07652 17.6891C1.9501 17.6302 1.84297 17.5367 1.76754 17.4194C1.69212 17.3021 1.6515 17.1658 1.65039 17.0264V2.38785C1.65039 2.19226 1.72809 2.00469 1.86639 1.86639C2.00469 1.72809 2.19226 1.65039 2.38785 1.65039H18.6119C18.8075 1.65039 18.9951 1.72809 19.1334 1.86639C19.2717 2.00469 19.3494 2.19226 19.3494 2.38785V14.1872C19.3494 14.3828 19.2717 14.5703 19.1334 14.7086C18.9951 14.8469 18.8075 14.9246 18.6119 14.9246H6.3056C6.13294 14.9247 5.96606 14.9868 5.83547 15.0998V15.0998Z" stroke="#A87C4B" stroke-width="2" stroke-linecap="round" stroke-linejoin="round"/>
<path d="M10.4997 9.39402C11.1107 9.39402 11.6059 8.89876 11.6059 8.28783C11.6059 7.6769 11.1107 7.18164 10.4997 7.18164C9.88881 7.18164 9.39355 7.6769 9.39355 8.28783C9.39355 8.89876 9.88881 9.39402 10.4997 9.39402Z" fill="#A87C4B"/>
<path d="M6.07494 9.39402C6.68587 9.39402 7.18112 8.89876 7.18112 8.28783C7.18112 7.6769 6.68587 7.18164 6.07494 7.18164C5.46401 7.18164 4.96875 7.6769 4.96875 8.28783C4.96875 8.89876 5.46401 9.39402 6.07494 9.39402Z" fill="#A87C4B"/>
<path d="M14.9245 9.39402C15.5355 9.39402 16.0307 8.89876 16.0307 8.28783C16.0307 7.6769 15.5355 7.18164 14.9245 7.18164C14.3136 7.18164 13.8184 7.6769 13.8184 8.28783C13.8184 8.89876 14.3136 9.39402 14.9245 9.39402Z" fill="#A87C4B"/>
</svg>
