<svg width="100" height="24" viewBox="0 0 100 24" fill="none" xmlns="http://www.w3.org/2000/svg">
<g clip-path="url(#clip0_1209_22)">
<path fill-rule="evenodd" clip-rule="evenodd" d="M93.3322 9.31607C93.8349 8.779 94.4195 8.51047 95.0869 8.51047C95.4675 8.51047 95.7449 8.61007 95.9182 8.80933C96.0915 9.00853 96.1782 9.22073 96.1782 9.44593C96.1782 9.6712 96.1262 9.87907 96.0222 10.0696C95.9269 10.2602 95.7362 10.4421 95.4502 10.6153C95.1642 10.7799 94.7615 10.9358 94.2422 11.0831C93.7222 11.2303 93.0469 11.3689 92.2149 11.4989C92.4575 10.572 92.8302 9.8444 93.3322 9.31607ZM98.1269 18.1773C98.5862 17.8308 99.0535 17.4237 99.5302 16.9559C98.2795 16.1531 97.3449 16.0229 95.2329 16.5333C95.2062 16.5401 95.1789 16.5467 95.1515 16.5531C94.8915 16.6138 94.5842 16.6441 94.2289 16.6441C93.4755 16.6441 92.9035 16.4319 92.5142 16.0075C92.1329 15.583 91.9335 14.9117 91.9162 13.9935C93.4582 13.8376 94.7355 13.6211 95.7495 13.3439C96.7715 13.0667 97.5815 12.7289 98.1789 12.3304C98.7849 11.932 99.2095 11.4815 99.4522 10.9791C99.6949 10.4681 99.8162 9.90507 99.8162 9.29007C99.8162 8.87427 99.7162 8.45847 99.5169 8.04274C99.3182 7.62694 99.0275 7.25447 98.6469 6.92533C98.2655 6.5875 97.7935 6.31465 97.2302 6.10675C96.6762 5.89887 96.0395 5.79492 95.3202 5.79492C94.5929 5.79492 93.9042 5.89887 93.2549 6.10675C92.6135 6.30599 92.0202 6.5875 91.4742 6.95134C90.9375 7.31514 90.4522 7.75254 90.0195 8.2636C89.5862 8.766 89.2182 9.3204 88.9149 9.92673C88.6202 10.5244 88.3909 11.1654 88.2262 11.8497C88.0702 12.534 87.9922 13.2356 87.9922 13.9545C87.9922 14.8121 88.1222 15.5917 88.3822 16.2933C88.6509 16.9949 89.0229 17.5969 89.4995 18.0993C89.9842 18.5931 90.5609 18.9785 91.2275 19.2557C91.8942 19.5242 92.6262 19.6585 93.4235 19.6585C94.0642 19.6585 94.6535 19.6065 95.1902 19.5026C95.7362 19.3987 96.2469 19.2384 96.7235 19.0219C97.2089 18.7966 97.6762 18.5151 98.1269 18.1773Z" fill="black"/>
<path fill-rule="evenodd" clip-rule="evenodd" d="M15.5042 9.02988C16.0066 8.49288 16.5913 8.22434 17.2583 8.22434C17.6394 8.22434 17.9166 8.32394 18.0898 8.52314C18.2631 8.72241 18.3497 8.93461 18.3497 9.15981C18.3497 9.38508 18.2977 9.59294 18.1937 9.78348C18.0985 9.97408 17.9079 10.1559 17.6221 10.3292C17.3363 10.4938 16.9335 10.6497 16.4137 10.7969C15.894 10.9442 15.2184 11.0828 14.3868 11.2127C14.6293 10.2859 15.0018 9.55828 15.5042 9.02988ZM20.2987 17.8911C20.7577 17.5447 21.2255 17.1375 21.7019 16.6698C20.4517 15.867 19.5163 15.7367 17.4048 16.2471C17.378 16.2539 17.3509 16.2606 17.3233 16.267C17.0634 16.3277 16.7559 16.358 16.4007 16.358C15.6471 16.358 15.0755 16.1457 14.6857 15.7213C14.3045 15.2969 14.1053 14.6255 14.088 13.7074C15.6298 13.5515 16.9075 13.3349 17.9209 13.0577C18.9431 12.7805 19.7529 12.4427 20.3506 12.0443C20.9569 11.6459 21.3814 11.1954 21.6239 10.693C21.8665 10.1819 21.9877 9.61894 21.9877 9.00394C21.9877 8.58814 21.8881 8.17234 21.6889 7.75661C21.4897 7.34081 21.1995 6.96834 20.8184 6.63918C20.4373 6.30136 19.9651 6.02851 19.4021 5.82062C18.8477 5.61274 18.2111 5.50879 17.4921 5.50879C16.7645 5.50879 16.0759 5.61274 15.4263 5.82062C14.7853 6.01986 14.1919 6.30137 13.6462 6.66517C13.1091 7.02901 12.6241 7.46641 12.191 7.97748C11.7579 8.47988 11.3897 9.03428 11.0866 9.64061C10.7921 10.2383 10.5625 10.8793 10.3979 11.5635C10.242 12.2478 10.1641 12.9495 10.1641 13.6684C10.1641 14.5259 10.294 15.3055 10.5539 16.0071C10.8224 16.7088 11.1949 17.3108 11.6713 17.8132C12.1563 18.3069 12.7324 18.6924 13.3993 18.9696C14.0663 19.2381 14.7983 19.3723 15.5952 19.3723C16.2361 19.3723 16.8252 19.3204 17.3622 19.2165C17.9079 19.1125 18.419 18.9523 18.8954 18.7357C19.3805 18.5105 19.8482 18.229 20.2987 17.8911Z" fill="black"/>
<path fill-rule="evenodd" clip-rule="evenodd" d="M71.2574 8.97781C71.8034 8.68334 72.4054 8.53607 73.0634 8.53607H73.3107L72.83 12.2651C72.6827 12.8454 72.5047 13.3911 72.2974 13.9022C72.0894 14.4133 71.86 14.8593 71.6087 15.2405C71.366 15.6216 71.106 15.9247 70.8287 16.15C70.5514 16.3665 70.266 16.4748 69.9714 16.4748C69.7807 16.4748 69.6034 16.4315 69.4387 16.3449C69.2827 16.2583 69.144 16.124 69.0227 15.9421C68.91 15.7515 68.8194 15.5047 68.75 15.2015C68.6807 14.8983 68.646 14.5302 68.646 14.0971C68.646 13.3348 68.75 12.6202 68.958 11.9533C69.174 11.2776 69.4774 10.6886 69.8674 10.1862C70.2574 9.67514 70.7207 9.27234 71.2574 8.97781ZM70.5947 19.0085C71.2794 18.5667 71.894 17.9647 72.44 17.2024C73.08 18.6311 73.9007 19.0735 75.896 19.4502L77.5334 6.36623C76.892 6.14101 76.2427 5.98509 75.584 5.89849C74.926 5.81187 74.2767 5.76855 73.6354 5.76855C72.3187 5.76855 71.11 6.01108 70.01 6.49617C68.91 6.98127 67.9574 7.63522 67.152 8.45815C66.3548 9.28102 65.7312 10.2425 65.2808 11.3425C64.8391 12.434 64.6182 13.5903 64.6182 14.8117C64.6182 15.6433 64.7222 16.3665 64.93 16.9815C65.1379 17.5879 65.415 18.0903 65.7616 18.4887C66.108 18.8785 66.5066 19.173 66.9567 19.3723C67.4074 19.5628 67.8754 19.6581 68.36 19.6581C69.174 19.6581 69.9194 19.4415 70.5947 19.0085Z" fill="black"/>
<path fill-rule="evenodd" clip-rule="evenodd" d="M60.4868 0L58.1221 19.4506C61.3675 18.4349 62.3207 17.2195 62.7028 14.4768L62.7727 13.9025L63.9165 4.4926C64.0625 2.70995 63.2186 0.747893 60.4868 0Z" fill="black"/>
<path fill-rule="evenodd" clip-rule="evenodd" d="M23.1016 19.4502L24.7388 5.97644H24.8225C26.4239 5.98222 27.2044 6.32894 28.1429 8.01635C28.7146 7.25408 29.3167 6.69107 29.949 6.32725C30.5812 5.95479 31.2438 5.76855 31.9369 5.76855C32.699 5.76855 33.3316 6.01542 33.8338 6.50916C34.3362 7.00287 34.6568 7.72187 34.7954 8.66601C35.393 7.66987 36.0471 6.93794 36.7573 6.47018C37.4675 6.00243 38.2689 5.76855 39.161 5.76855C39.7241 5.76855 40.2308 5.88115 40.6812 6.10637C41.1316 6.33159 41.5042 6.66073 41.7986 7.09387C42.093 7.52694 42.2968 8.06402 42.4093 8.70502C42.5306 9.33728 42.5392 10.0649 42.4352 10.8878L41.8536 15.8027C41.5176 18.6251 40.5712 19.4473 37.4794 19.4502H37.4459L38.4594 10.8878C38.5028 10.524 38.5158 10.2165 38.4984 9.96527C38.4898 9.71407 38.4508 9.51487 38.3814 9.36761C38.3209 9.22034 38.2299 9.11641 38.1086 9.05581C37.9872 8.98647 37.8443 8.95187 37.6798 8.95187C37.4114 8.95187 37.1515 9.02547 36.9002 9.17274C36.6578 9.31134 36.4239 9.51921 36.1986 9.79641C35.9821 10.0649 35.7828 10.3941 35.6009 10.7839C35.419 11.165 35.2587 11.5938 35.1202 12.0702L34.681 15.7927L34.6802 15.8002L34.6798 15.8027C34.3531 18.5617 33.4452 19.432 30.4694 19.4502H30.2738L31.2872 10.8878C31.3306 10.524 31.3436 10.2165 31.3262 9.96527C31.3176 9.71407 31.2786 9.51487 31.2093 9.36761C31.1487 9.22034 31.0578 9.11641 30.9364 9.05581C30.8151 8.98647 30.6722 8.95187 30.5076 8.95187C30.2392 8.95187 29.9794 9.02547 29.728 9.17274C29.4768 9.32001 29.2388 9.53221 29.0134 9.80941C28.797 10.0866 28.5976 10.4244 28.4158 10.8229C28.2338 11.2126 28.0736 11.6501 27.935 12.1351L27.4932 15.7927C26.9176 18.5781 25.9 19.3144 23.1016 19.4502Z" fill="black"/>
<path fill-rule="evenodd" clip-rule="evenodd" d="M48.2002 16.137C48.4513 16.3362 48.7286 16.4791 49.0318 16.5657C49.3436 16.6524 49.6381 16.6957 49.9154 16.6957C50.3831 16.6957 50.8118 16.5398 51.2016 16.2279C51.6 15.9161 51.9422 15.509 52.2281 15.0066C52.514 14.4955 52.7348 13.9152 52.8908 13.2655C53.0552 12.6159 53.1376 11.9533 53.1376 11.2776C53.1376 10.4201 53.0118 9.79641 52.7608 9.40661C52.5096 9.01681 52.1761 8.82195 51.7604 8.82195C51.4831 8.82195 51.1928 8.93021 50.8898 9.14674C50.5952 9.35461 50.3051 9.64047 50.0193 10.0043C49.742 10.3681 49.4778 10.7969 49.2267 11.2906C48.984 11.7843 48.7761 12.3127 48.603 12.8757L48.2002 16.137ZM48.9019 8.44514C49.5256 7.61354 50.2098 6.95961 50.9548 6.48317C51.7084 6.00677 52.514 5.76855 53.3715 5.76855C53.9258 5.76855 54.4325 5.86816 54.8917 6.06739C55.3506 6.25795 55.7448 6.56113 56.074 6.97687C56.4118 7.39267 56.6717 7.92542 56.8536 8.57508C57.0441 9.21608 57.1395 9.98261 57.1395 10.8748C57.1395 12.0529 56.9576 13.1746 56.5938 14.24C56.2386 15.2968 55.7578 16.2279 55.1515 17.0335C54.545 17.8391 53.8434 18.4801 53.0466 18.9565C52.2582 19.4242 51.4311 19.6581 50.565 19.6581C50.0105 19.6581 49.5082 19.5671 49.0578 19.3853C48.616 19.2033 48.2262 18.9608 47.8884 18.6577C47.1622 22.3082 46.1341 23.366 43.3408 23.7249L45.4977 5.97644C47.5341 6.41493 48.3506 6.90261 48.9019 8.44514Z" fill="black"/>
<path fill-rule="evenodd" clip-rule="evenodd" d="M79.6316 16.5406V16.3198C79.6316 16.2332 79.6356 16.1119 79.6442 15.956C79.6616 15.7914 79.6836 15.5792 79.7096 15.3193C79.7442 15.0508 79.7876 14.7 79.8396 14.2669L80.5282 8.75782C79.3282 8.30889 79.0609 7.75029 79.0596 6.39309L81.0996 5.97731L81.5589 4.6432C82.3876 2.58014 83.3376 2.08348 85.0996 2.06641H85.2962L84.8029 6.00329H87.8169C87.5616 8.05555 86.9236 8.74635 84.5856 8.75782H84.4649L83.8156 14.046C83.7722 14.4012 83.7376 14.6826 83.7116 14.8906C83.6856 15.0898 83.6636 15.2457 83.6462 15.3583C83.6376 15.4622 83.6336 15.5358 83.6336 15.5792V15.6442C83.6336 15.8954 83.6896 16.1076 83.8022 16.2808C83.9236 16.4454 84.1102 16.5277 84.3609 16.5277C85.6442 16.677 86.0496 17.1764 86.4849 18.081L86.6736 18.4896C86.1369 18.8794 85.5609 19.1739 84.9456 19.3732C84.3309 19.5637 83.7116 19.659 83.0876 19.659C82.5682 19.659 82.1002 19.5897 81.6842 19.4511C81.2689 19.3038 80.9089 19.096 80.6062 18.8274C80.3116 18.5502 80.0776 18.2211 79.9042 17.84C79.7396 17.4588 79.6489 17.0258 79.6316 16.5406Z" fill="black"/>
<path fill-rule="evenodd" clip-rule="evenodd" d="M7.69293 14.965L9.06913 3.81608C12.7031 3.70624 13.7511 2.89322 14.3183 0.463867H4.83341C1.38523 0.514679 0.352508 1.26892 0 3.81608H4.83341L2.93643 19.3947C6.07364 19.0077 7.27507 18.2056 7.69293 14.965Z" fill="black"/>
</g>
<defs>
<clipPath id="clip0_1209_22">
<rect width="100" height="24" fill="white"/>
</clipPath>
</defs>
</svg>
