<svg width="23" height="17" viewBox="0 0 23 17" fill="none" xmlns="http://www.w3.org/2000/svg">
<path d="M7.71475 10.9307C10.3445 10.9307 12.4764 8.74173 12.4764 6.04152C12.4764 3.3413 10.3445 1.15234 7.71475 1.15234C5.08498 1.15234 2.95312 3.3413 2.95312 6.04152C2.95312 8.74173 5.08498 10.9307 7.71475 10.9307Z" stroke="#A87C4B" stroke-width="2" stroke-miterlimit="10"/>
<path d="M13.8867 1.33099C14.3076 1.21377 14.7417 1.15371 15.1779 1.15234C16.4407 1.15234 17.6519 1.66745 18.5448 2.58435C19.4378 3.50125 19.9395 4.74483 19.9395 6.04152C19.9395 7.33821 19.4378 8.58178 18.5448 9.49868C17.6519 10.4156 16.4407 10.9307 15.1779 10.9307" stroke="#A87C4B" stroke-width="2" stroke-linecap="round" stroke-linejoin="round"/>
<path d="M1.12207 14.4474C1.86557 13.3611 2.85277 12.4744 4.0003 11.8623C5.14782 11.2502 6.42196 10.9307 7.71509 10.9307C9.00822 10.9307 10.2824 11.2502 11.4299 11.8623C12.5774 12.4744 13.5646 13.3611 14.3081 14.4474" stroke="#A87C4B" stroke-width="2" stroke-linecap="round" stroke-linejoin="round"/>
<path d="M15.1777 10.9307C16.471 10.9298 17.7454 11.249 18.893 11.8611C20.0407 12.4732 21.0278 13.3602 21.7708 14.4471" stroke="#A87C4B" stroke-width="2" stroke-linecap="round" stroke-linejoin="round"/>
</svg>
