<svg width="300" height="233" viewBox="0 0 300 233" fill="none" xmlns="http://www.w3.org/2000/svg">
<g clip-path="url(#clip0_1181_69)">
<path d="M264.063 131.687L270.616 125.13C270.019 120.783 269.178 116.474 268.095 112.222L264.36 114.112L267.716 110.755C266.325 105.511 265.072 102.126 265.072 102.126C265.072 102.126 251.865 115.576 245.039 131.349L249.268 142.467L243.481 135.32C242.821 137.186 242.279 139.092 241.859 141.026C237.682 160.542 240.67 177.727 248.533 179.41C256.396 181.093 266.155 166.636 270.332 147.119C271.626 141.069 271.612 134.447 270.977 128.187L264.063 131.687Z" fill="#868A73"/>
<path d="M283.538 145.306L292.537 143.08C294.273 139.05 295.78 134.926 297.051 130.727L292.877 130.415L297.484 129.275C299.005 124.067 299.682 120.521 299.682 120.521C299.682 120.521 281.423 125.209 267.427 135.182L265.3 146.887L264.041 137.777C262.512 139.033 261.063 140.385 259.703 141.823C246.04 156.371 239.715 172.627 245.576 178.131C251.437 183.636 267.264 176.305 280.927 161.757C285.163 157.247 288.574 151.57 291.266 145.884L283.538 145.306Z" fill="#868A73"/>
<path d="M197.648 64.4608L199.859 47.1089C193.95 41.3108 187.718 35.8506 181.194 30.7543L177.802 37.8878L178.934 29.0036C170.804 22.782 165.026 19.1768 165.026 19.1768C165.026 19.1768 160.843 54.4986 168.864 85.9194L188.013 97.6312L171.124 93.6441C172.294 97.1914 173.685 100.662 175.291 104.034C191.589 137.983 215.888 160.182 229.566 153.616C243.243 147.05 241.119 114.205 224.821 80.2563C219.768 69.7317 212.101 59.8637 203.927 51.255L197.648 64.4608Z" fill="#868A73"/>
<path d="M242.437 62.3036L253.299 48.5923C251.237 40.5743 248.725 32.6789 245.774 24.9438L239.183 29.2972L244.745 22.2771C241.001 12.7487 237.918 6.67578 237.918 6.67578C237.918 6.67578 216.079 34.7505 206.704 65.7943L217.043 85.7183L204.646 73.5754C203.814 77.2166 203.212 80.9065 202.842 84.6234C199.246 122.11 208.573 153.673 223.676 155.122C238.778 156.571 253.937 127.357 257.533 89.8707C258.648 78.2495 257.186 65.839 254.638 54.2442L242.437 62.3036Z" fill="#868A73"/>
<path d="M42.2026 67.0104L41.1039 48.8037C33.9252 44.0088 26.4819 39.6226 18.8092 35.6661L16.7173 43.6322L16.1547 34.3104C6.61874 29.5122 0 26.9385 0 26.9385C0 26.9385 2.56154 63.9389 16.8712 94.5763L38.7609 102.864L20.6847 102.053C22.5707 105.46 24.6691 108.746 26.9676 111.89C50.2473 143.513 79.4473 161.546 92.1877 152.167C104.928 142.788 96.3842 109.55 73.1045 77.9261C65.8876 68.1226 56.1192 59.4986 46.0753 52.2631L42.2026 67.0104Z" fill="#868A73"/>
<path d="M87.674 56.118L96.1445 39.9643C92.4777 32.149 88.3731 24.5467 83.8501 17.1937L77.9416 22.9318L82.2785 14.6611C76.5955 5.62442 72.2599 0 72.2599 0C72.2599 0 55.3271 32.9981 51.7403 66.6218L66.1952 85.0308L51.1403 74.9929C50.9934 78.8849 51.0914 82.7823 51.4338 86.6619C55.0161 125.766 70.6914 156.297 86.4457 154.853C102.2 153.41 112.067 120.54 108.485 81.4356C107.375 69.3128 103.47 56.881 98.6121 45.4954L87.674 56.118Z" fill="#868A73"/>
<path d="M135.062 219.574C141.231 219.574 146.232 218.146 146.232 216.383C146.232 214.62 141.231 213.191 135.062 213.191C128.893 213.191 123.892 214.62 123.892 216.383C123.892 218.146 128.893 219.574 135.062 219.574Z" fill="#E6E6E6"/>
<path d="M256.658 232.022C262.827 232.022 267.828 230.593 267.828 228.83C267.828 227.068 262.827 225.639 256.658 225.639C250.488 225.639 245.487 227.068 245.487 228.83C245.487 230.593 250.488 232.022 256.658 232.022Z" fill="#E6E6E6"/>
<path d="M279.955 205.851C286.125 205.851 291.126 204.422 291.126 202.659C291.126 200.897 286.125 199.468 279.955 199.468C273.786 199.468 268.785 200.897 268.785 202.659C268.785 204.422 273.786 205.851 279.955 205.851Z" fill="#E6E6E6"/>
<path d="M234.158 196.596C238.829 196.596 242.615 195.514 242.615 194.179C242.615 192.845 238.829 191.763 234.158 191.763C229.487 191.763 225.7 192.845 225.7 194.179C225.7 195.514 229.487 196.596 234.158 196.596Z" fill="#E6E6E6"/>
<path d="M50.966 194.316C54.0505 194.316 56.5511 193.54 56.5511 192.583C56.5511 191.626 54.0505 190.851 50.966 190.851C47.8814 190.851 45.3809 191.626 45.3809 192.583C45.3809 193.54 47.8814 194.316 50.966 194.316Z" fill="#E6E6E6"/>
<path d="M28.9445 213.784C32.029 213.784 34.5296 213.009 34.5296 212.052C34.5296 211.095 32.029 210.319 28.9445 210.319C25.8599 210.319 23.3594 211.095 23.3594 212.052C23.3594 213.009 25.8599 213.784 28.9445 213.784Z" fill="#E6E6E6"/>
<path d="M28.9445 183.146C32.029 183.146 34.5296 182.37 34.5296 181.413C34.5296 180.456 32.029 179.681 28.9445 179.681C25.8599 179.681 23.3594 180.456 23.3594 181.413C23.3594 182.37 25.8599 183.146 28.9445 183.146Z" fill="#E6E6E6"/>
<path d="M268.106 187.007L213.991 185.092L185.453 187.814L136.696 192.464L118.349 194.213L75.857 208.384C75.6865 208.44 75.5033 208.448 75.3287 208.405C75.1541 208.362 74.9953 208.27 74.8707 208.14C74.7461 208.011 74.6608 207.848 74.6246 207.672C74.5885 207.496 74.6031 207.313 74.6666 207.145L74.6698 207.142L82.039 187.652L81.2634 187.08L60.9847 172.179L60.8762 172.099L34.5815 168.091C34.2113 168.034 33.8617 167.884 33.5656 167.655C33.2695 167.425 33.0368 167.124 32.8892 166.78C32.7417 166.436 32.6843 166.06 32.7224 165.687C32.7605 165.315 32.8929 164.958 33.107 164.651L73.1538 107.185L94.1985 76.9931L96.4804 73.7154L184.023 72.5059L269.494 184.32C269.687 184.572 269.804 184.873 269.832 185.189C269.859 185.504 269.797 185.821 269.651 186.103C269.506 186.385 269.283 186.619 269.01 186.779C268.736 186.939 268.423 187.018 268.106 187.007V187.007Z" fill="#6C63FF"/>
<path opacity="0.2" d="M116.987 78.3788L81.2628 187.08L60.9863 172.179L73.1548 107.185L94.1382 76.9209L94.1979 76.9914L116.987 78.3788Z" fill="black"/>
<path d="M85.0986 120.021C81.045 129.766 79.6099 137.905 74.8017 136.435C68.219 134.423 75.1306 127.306 79.1842 117.561C83.2378 107.816 86.102 100.341 89.4811 101.146C95.7808 102.648 89.1522 110.276 85.0986 120.021Z" fill="#3F3D56"/>
<path d="M94.2824 100.515C94.2813 99.8702 94.1533 99.2318 93.9055 98.6363C93.6577 98.0409 93.2951 97.5001 92.8384 97.0448C92.3816 96.5895 91.8397 96.2286 91.2434 95.9828C90.6472 95.737 90.0084 95.611 89.3635 95.612C89.2527 95.6122 89.1431 95.6174 89.0342 95.6248L84.3998 95.053C83.868 94.8635 83.3075 94.7672 82.7429 94.7686C82.587 94.7688 82.4331 94.7772 82.2809 94.7916L82.1024 94.7696L82.0976 94.8132C81.01 94.9592 80.0026 95.4652 79.2362 96.2506C78.4698 97.0359 77.9885 98.0553 77.869 99.1462C77.7496 100.237 77.9989 101.336 78.5773 102.269C79.1556 103.202 80.0296 103.914 81.0599 104.291L81.0502 104.38L81.5061 104.431C81.9151 104.538 82.3361 104.591 82.7587 104.591C82.8056 104.59 82.8519 104.588 82.8985 104.587L87.636 105.117C88.193 105.328 88.7838 105.435 89.3793 105.434C89.6013 105.433 89.823 105.418 90.0429 105.387L90.4469 105.432L90.4493 105.314C91.5385 105.069 92.5116 104.46 93.2084 103.587C93.9051 102.715 94.2839 101.632 94.2824 100.515V100.515Z" fill="#6C63FF"/>
<path opacity="0.2" d="M94.2824 100.515C94.2813 99.8702 94.1533 99.2318 93.9055 98.6363C93.6577 98.0409 93.2951 97.5001 92.8384 97.0448C92.3816 96.5895 91.8397 96.2286 91.2434 95.9828C90.6472 95.737 90.0084 95.611 89.3635 95.612C89.2527 95.6122 89.1431 95.6174 89.0342 95.6248L84.3998 95.053C83.868 94.8635 83.3075 94.7672 82.7429 94.7686C82.587 94.7688 82.4331 94.7772 82.2809 94.7916L82.1024 94.7696L82.0976 94.8132C81.01 94.9592 80.0026 95.4652 79.2362 96.2506C78.4698 97.0359 77.9885 98.0553 77.869 99.1462C77.7496 100.237 77.9989 101.336 78.5773 102.269C79.1556 103.202 80.0296 103.914 81.0599 104.291L81.0502 104.38L81.5061 104.431C81.9151 104.538 82.3361 104.591 82.7587 104.591C82.8056 104.59 82.8519 104.588 82.8985 104.587L87.636 105.117C88.193 105.328 88.7838 105.435 89.3793 105.434C89.6013 105.433 89.823 105.418 90.0429 105.387L90.4469 105.432L90.4493 105.314C91.5385 105.069 92.5116 104.46 93.2084 103.587C93.9051 102.715 94.2839 101.632 94.2824 100.515V100.515Z" fill="white"/>
<path d="M28.6961 167.602L28.1289 167.304C42.658 139.612 83.7517 80.444 84.165 79.8496L84.6911 80.2153C84.2779 80.8094 43.2068 139.945 28.6961 167.602Z" fill="#3F3D56"/>
<path d="M73.2009 209.103L72.583 208.934C72.8823 207.834 102.642 98.6715 112.975 80.2568L113.533 80.5702C103.239 98.9167 73.5002 208.003 73.2009 209.103Z" fill="#3F3D56"/>
<path d="M272.012 187.939C256.147 161.803 196.231 80.8589 195.628 80.0442L196.143 79.6631C196.746 80.4778 256.679 161.446 272.56 187.606L272.012 187.939Z" fill="#3F3D56"/>
<path d="M72.0471 212.008C73.2853 212.006 74.287 210.713 74.2845 209.121C74.2819 207.529 73.2761 206.24 72.0379 206.242C70.7997 206.244 69.798 207.537 69.8005 209.129C69.8031 210.721 70.8089 212.01 72.0471 212.008Z" fill="#3F3D56"/>
<path d="M28.8411 168.841C30.0793 168.839 31.081 167.546 31.0784 165.954C31.0759 164.362 30.07 163.074 28.8318 163.075C27.5936 163.077 26.5919 164.37 26.5945 165.962C26.597 167.554 27.6029 168.843 28.8411 168.841Z" fill="#3F3D56"/>
<path d="M272.607 189.377C273.845 189.375 274.847 188.083 274.844 186.491C274.841 184.899 273.836 183.61 272.597 183.612C271.359 183.614 270.358 184.906 270.36 186.498C270.363 188.09 271.369 189.379 272.607 189.377Z" fill="#3F3D56"/>
<path d="M81.6748 83.0295L202.511 84.3243C202.427 74.4553 198.447 65.0194 191.437 58.0722C184.427 51.125 174.955 47.2295 165.086 47.2344L118.97 47.3086C99.6813 47.3396 83.3484 62.424 81.7871 81.6498L81.6748 83.0295Z" fill="#3F3D56"/>
<path opacity="0.2" d="M187.846 122.973H143.682C143.145 122.972 142.612 123.078 142.116 123.285C141.62 123.492 141.169 123.796 140.791 124.178C140.413 124.561 140.115 125.015 139.914 125.513C139.713 126.012 139.613 126.546 139.619 127.083L139.658 130.313L140.05 164.89L140.057 165.557L140.069 166.658L140.082 167.733L140.156 174.215C140.168 175.27 140.589 176.279 141.331 177.029C142.073 177.778 143.078 178.21 144.132 178.233C144.241 178.233 144.352 178.23 144.464 178.224L154.951 177.585L170.124 176.66L175.479 176.334L176.673 176.261L185.018 175.754H185.022L188.092 175.565C189.125 175.501 190.094 175.046 190.803 174.292C191.512 173.539 191.908 172.544 191.909 171.509V127.035C191.908 125.958 191.479 124.926 190.718 124.164C189.956 123.402 188.923 122.974 187.846 122.973V122.973Z" fill="black"/>
<path d="M196.941 117.325C196.781 117.338 196.626 117.386 196.487 117.465C196.348 117.545 196.229 117.655 196.137 117.786L191.271 117.794V116.503C191.27 115.426 190.841 114.393 190.08 113.632C189.318 112.87 188.285 112.442 187.208 112.44H143.044C142.507 112.44 141.974 112.546 141.478 112.753C140.982 112.96 140.531 113.264 140.153 113.646C139.775 114.029 139.477 114.482 139.276 114.981C139.075 115.48 138.975 116.013 138.982 116.551L138.997 117.878L135.859 117.883C135.687 117.7 135.451 117.59 135.2 117.578C134.1 117.579 133.212 119.981 133.217 122.943C133.222 125.904 134.117 128.304 135.217 128.302C135.409 128.281 135.593 128.214 135.753 128.107C135.913 128 136.046 127.856 136.139 127.688L196.153 127.591C196.245 127.722 196.365 127.831 196.504 127.91C196.643 127.99 196.799 128.037 196.958 128.049C198.058 128.048 198.946 125.645 198.941 122.684C198.937 119.722 198.041 117.323 196.941 117.325Z" fill="#6C63FF"/>
<path opacity="0.2" d="M196.941 117.325C196.781 117.338 196.626 117.386 196.487 117.465C196.348 117.545 196.229 117.655 196.137 117.786L191.271 117.794V116.503C191.27 115.426 190.841 114.393 190.08 113.632C189.318 112.87 188.285 112.442 187.208 112.44H143.044C142.507 112.44 141.974 112.546 141.478 112.753C140.982 112.96 140.531 113.264 140.153 113.646C139.775 114.029 139.477 114.482 139.276 114.981C139.075 115.48 138.975 116.013 138.982 116.551L138.997 117.878L135.859 117.883C135.687 117.7 135.451 117.59 135.2 117.578C134.1 117.579 133.212 119.981 133.217 122.943C133.222 125.904 134.117 128.304 135.217 128.302C135.409 128.281 135.593 128.214 135.753 128.107C135.913 128 136.046 127.856 136.139 127.688L196.153 127.591C196.245 127.722 196.365 127.831 196.504 127.91C196.643 127.99 196.799 128.037 196.958 128.049C198.058 128.048 198.946 125.645 198.941 122.684C198.937 119.722 198.041 117.323 196.941 117.325Z" fill="white"/>
<path d="M191.997 185.125C191.705 185.399 191.353 185.601 190.97 185.716C190.586 185.831 190.181 185.856 189.786 185.788C189.392 185.721 189.018 185.563 188.695 185.327C188.371 185.091 188.107 184.784 187.922 184.429L185.521 179.819L186.476 177.749L191.623 181.043C191.956 181.256 192.236 181.543 192.442 181.881C192.647 182.219 192.773 182.599 192.809 182.993C192.845 183.387 192.79 183.783 192.65 184.153C192.509 184.523 192.286 184.855 191.997 185.125Z" fill="#FFB8B8"/>
<path d="M202.368 212.022C202.312 211.489 202.058 210.997 201.657 210.641C201.256 210.286 200.737 210.093 200.201 210.101C199.713 210.097 199.238 210.258 198.853 210.557C198.467 210.856 198.193 211.276 198.075 211.749V211.749L195.948 222.075C195.878 222.377 195.842 222.686 195.84 222.996C195.84 225.324 197.789 226.942 200.201 226.942C202.614 226.942 204.564 225.324 204.564 222.996C204.563 222.623 204.512 222.251 204.413 221.892L202.368 212.022Z" fill="#3F3D56"/>
<path d="M218.453 216.64C218.237 216.45 218.004 216.28 217.758 216.132L209.635 210.455C208.844 209.958 207.999 209.972 207.386 210.571C207.118 210.826 206.948 211.167 206.905 211.534C206.862 211.901 206.95 212.272 207.152 212.581L213.286 220.642C213.426 220.838 213.582 221.021 213.753 221.19C214.816 222.379 217.174 222.444 218.469 221.19C219.748 219.916 219.732 217.645 218.453 216.64Z" fill="#3F3D56"/>
<path d="M224.558 208.23H216.331C216.067 208.22 215.81 208.315 215.616 208.493C215.421 208.672 215.305 208.92 215.293 209.184C215.289 209.427 215.366 209.664 215.513 209.858C215.659 210.052 215.867 210.191 216.102 210.254L223.863 212.655C224.99 212.918 226.509 211.913 226.509 210.658C226.509 209.062 225.621 208.23 224.558 208.23Z" fill="#3F3D56"/>
<path d="M185.409 209.18C185.4 209.044 185.365 208.911 185.304 208.79C185.244 208.668 185.16 208.56 185.057 208.471C184.954 208.382 184.835 208.315 184.705 208.273C184.576 208.231 184.44 208.215 184.305 208.226H176.077C175.041 208.226 174.167 209.345 174.167 210.6C174.167 211.855 175.641 212.918 176.772 212.655L184.65 210.254C184.887 210.199 185.095 210.06 185.234 209.861C185.374 209.663 185.436 209.421 185.409 209.18Z" fill="#3F3D56"/>
<path d="M191.056 210.465L182.93 216.117C182.678 216.259 182.443 216.429 182.229 216.625C181.632 217.181 181.28 217.951 181.25 218.766C181.221 219.582 181.516 220.375 182.072 220.973C182.122 221.027 182.175 221.08 182.229 221.13C182.867 221.732 183.71 222.068 184.587 222.068C185.464 222.068 186.307 221.732 186.945 221.13C187.118 220.964 187.275 220.781 187.412 220.584L193.55 212.568C193.756 212.262 193.845 211.893 193.803 211.528C193.76 211.162 193.587 210.824 193.317 210.574C193.014 210.292 192.62 210.126 192.206 210.106C191.793 210.085 191.385 210.213 191.056 210.465V210.465Z" fill="#3F3D56"/>
<path d="M203.695 199.418C203.79 199.279 203.842 199.116 203.846 198.949C203.846 197.959 201.896 197.271 199.483 197.271C197.071 197.271 195.122 197.959 195.122 198.949C195.126 199.086 195.163 199.221 195.231 199.34L197.357 203.728C197.601 204.142 198.479 204.432 199.483 204.429C200.616 204.429 201.556 204.071 201.651 203.613L203.695 199.418Z" fill="#3F3D56"/>
<path d="M217.752 199.715C216.456 199.183 214.098 199.21 213.035 199.715C212.874 199.782 212.718 199.86 212.568 199.948L206.434 203.374C206.017 203.646 206.115 204.005 206.668 204.228C207.394 204.48 208.18 204.497 208.917 204.278L217.04 201.865C217.276 201.806 217.508 201.733 217.735 201.649C219.015 201.222 219.03 200.257 217.752 199.715Z" fill="#3F3D56"/>
<path d="M225.791 204.192C225.791 203.658 224.272 203.231 223.145 203.343L215.384 204.363C214.92 204.428 214.575 204.579 214.575 204.818C214.575 205.057 215.081 205.223 215.613 205.223H223.84C224.903 205.223 225.791 204.87 225.791 204.192Z" fill="#3F3D56"/>
<path d="M183.933 204.364L176.055 203.343C174.924 203.232 173.449 203.683 173.449 204.217C173.449 204.75 174.323 205.226 175.359 205.226H183.587C184.159 205.226 184.691 205.069 184.691 204.82C184.691 204.572 184.446 204.429 183.933 204.364Z" fill="#3F3D56"/>
<path d="M192.598 204.227C193.173 204 193.241 203.657 192.832 203.38L186.693 199.974C186.544 199.884 186.388 199.806 186.226 199.741C184.699 199.21 183.037 199.21 181.51 199.741C181.456 199.763 181.404 199.785 181.353 199.808C180.196 200.337 180.266 201.164 181.51 201.656C181.739 201.744 181.973 201.816 182.211 201.872L190.337 204.274C191.077 204.494 191.868 204.477 192.598 204.227V204.227Z" fill="#3F3D56"/>
<path d="M216.217 198.707C216.217 211.397 209.144 211.632 200.42 211.632C191.695 211.632 177.371 209.122 184.623 198.707C192.271 187.723 205.391 166.786 200.42 165.677C200.42 165.677 216.217 186.017 216.217 198.707Z" fill="#F9A825"/>
<path opacity="0.5" d="M205.983 206.516C205.983 211.539 203.184 211.632 199.73 211.632C196.277 211.632 190.607 210.638 193.477 206.516C196.505 202.168 201.698 193.88 199.73 193.441C199.73 193.441 205.983 201.493 205.983 206.516Z" fill="#FF6584"/>
<path d="M191.909 169.24V171.509C191.908 172.543 191.513 173.539 190.804 174.292C190.095 175.046 189.125 175.501 188.092 175.565L144.465 178.224C143.915 178.257 143.365 178.179 142.847 177.993C142.328 177.808 141.853 177.519 141.45 177.144C141.047 176.769 140.725 176.316 140.502 175.812C140.28 175.309 140.162 174.765 140.156 174.215L140.051 164.89L166.441 164.462L191.909 169.24Z" fill="#3F3D56"/>
<path d="M184.795 180.48L165.113 170.257C165.022 170.21 164.942 170.144 164.879 170.064C164.816 169.983 164.77 169.89 164.746 169.791L160.476 152.583C160.228 151.585 160.362 150.53 160.851 149.625C161.34 148.72 162.15 148.03 163.12 147.69L164.149 147.33C164.378 147.25 164.622 147.218 164.864 147.235C165.106 147.253 165.342 147.32 165.558 147.432C165.773 147.545 165.963 147.7 166.116 147.889C166.268 148.078 166.381 148.296 166.446 148.531L170.654 163.68C170.694 163.822 170.775 163.948 170.889 164.042L186.925 177.33C187.064 177.444 187.154 177.606 187.179 177.784C187.204 177.962 187.162 178.143 187.06 178.291L185.722 180.247C185.623 180.392 185.473 180.496 185.303 180.539C185.132 180.582 184.951 180.561 184.795 180.48V180.48Z" fill="#E6E6E6"/>
<path d="M171.829 153.709C162.283 148.683 152.291 146.159 141.58 147.659C144.809 142.187 147.206 137.128 147.046 133.341C146.977 132.124 147.208 130.909 147.718 129.802C148.228 128.695 149.001 127.729 149.971 126.991C151.531 125.834 153.422 125.21 155.364 125.211V125.211C157.098 124.437 159.063 124.359 160.853 124.993C161.613 125.279 162.304 125.722 162.881 126.293C163.458 126.864 163.908 127.551 164.201 128.308C164.567 129.195 165.356 129.972 166.499 130.657C167.558 131.27 168.421 132.171 168.987 133.256C169.74 134.755 169.792 136.264 168.805 137.788C172.502 141.671 172.512 147.506 171.829 153.709Z" fill="#2F2E41"/>
<path d="M158.296 141.131C161.989 141.131 164.983 138.137 164.983 134.444C164.983 130.752 161.989 127.758 158.296 127.758C154.603 127.758 151.609 130.752 151.609 134.444C151.609 138.137 154.603 141.131 158.296 141.131Z" fill="#FFB8B8"/>
<path d="M161.481 148.933L153.68 149.729C154.098 145.167 154.263 140.958 153.68 137.788H161.481C159.999 142.836 160.129 146.434 161.481 148.933Z" fill="#FFB8B8"/>
<path d="M165.659 148.759C165.652 149.458 165.637 150.15 165.614 150.834C165.451 155.73 164.835 160.137 163.157 163.383C162.816 164.055 162.408 164.691 161.941 165.282C161.937 165.288 161.933 165.293 161.928 165.298C161.896 165.343 161.861 165.385 161.823 165.425C161.479 165.852 161.098 166.246 160.683 166.603L157.489 169.954L157.342 170.107L156.41 170.73L151.61 173.928L140.082 167.733L140.069 166.657L140.057 165.556C142.619 161.924 144.218 157.201 145.233 151.823C145.511 150.352 145.747 148.83 145.948 147.266C146.085 146.184 146.207 145.08 146.312 143.959C146.328 143.616 146.445 143.284 146.647 143.005C146.647 143.005 146.647 143.004 146.647 143.004C146.647 143.004 146.648 143.003 146.648 143.003C146.648 143.003 146.649 143.002 146.649 143.002C146.649 143.002 146.65 143.002 146.65 143.002C147.142 142.376 148.118 142.389 149.299 142.325C150.956 142.236 152.586 141.378 154.051 142.188C154.088 142.205 154.123 142.224 154.157 142.246L158.456 147.02L160.431 144.891L160.524 144.792L164.593 146.535C165.009 146.715 165.346 147.039 165.542 147.448C165.738 147.857 165.779 148.322 165.659 148.759V148.759Z" fill="#E6E6E6"/>
<path d="M156.586 172.227C156.586 173.041 156.433 173.848 156.133 174.605L154.952 177.586L144.465 178.224C144.353 178.231 144.242 178.234 144.133 178.234C143.078 178.211 142.074 177.779 141.332 177.029C140.59 176.279 140.169 175.27 140.156 174.216L140.083 167.734L140.07 166.658L143.887 168.276L147.609 166.278C147.811 166.192 148.019 166.117 148.231 166.055C148.507 165.968 148.788 165.901 149.073 165.854H149.077C149.214 165.832 149.351 165.813 149.488 165.8C151.066 165.642 152.646 166.07 153.928 167.003C154.677 167.545 155.299 168.245 155.75 169.052C155.785 169.107 155.816 169.165 155.843 169.224C156.096 169.7 156.287 170.206 156.411 170.731C156.527 171.221 156.586 171.723 156.586 172.227V172.227Z" fill="#2F2E41"/>
<path opacity="0.2" d="M153.6 153.151L154.995 159.552L163.47 166.843L155.988 159.201L153.6 153.151Z" fill="black"/>
<path opacity="0.2" d="M145.799 156.176L148.346 166.524L155.829 169.231L148.824 165.728L145.799 156.176Z" fill="black"/>
<path d="M166.337 134.843C161.408 132.576 155.837 131.929 150.894 134.365L151.53 128.634L162.356 126.883L166.337 134.843Z" fill="#2F2E41"/>
<path d="M205.951 185.207L169.713 178.981L170.157 176.792L205.951 185.207Z" fill="#3F3D56"/>
<path d="M175.758 180.349C175.465 180.622 175.114 180.825 174.73 180.94C174.347 181.055 173.942 181.079 173.547 181.012C173.153 180.944 172.779 180.787 172.455 180.551C172.132 180.315 171.867 180.007 171.682 179.652L169.281 175.042L170.236 172.973L175.384 176.267C175.717 176.48 175.997 176.767 176.202 177.104C176.408 177.442 176.533 177.823 176.569 178.216C176.606 178.61 176.551 179.007 176.411 179.377C176.27 179.746 176.047 180.079 175.758 180.349V180.349Z" fill="#FFB8B8"/>
<path d="M168.556 175.703L148.874 165.481C148.783 165.434 148.703 165.368 148.64 165.287C148.577 165.207 148.531 165.114 148.506 165.015L144.237 147.807C143.989 146.809 144.123 145.754 144.612 144.849C145.101 143.944 145.91 143.254 146.881 142.914L147.91 142.554C148.139 142.474 148.382 142.441 148.625 142.459C148.867 142.476 149.103 142.543 149.318 142.656C149.534 142.769 149.724 142.924 149.876 143.113C150.029 143.302 150.142 143.52 150.207 143.754L154.415 158.904C154.454 159.046 154.536 159.172 154.649 159.266L170.686 172.553C170.824 172.668 170.915 172.83 170.94 173.008C170.965 173.186 170.922 173.367 170.821 173.515L169.483 175.471C169.383 175.616 169.234 175.72 169.063 175.763C168.893 175.806 168.712 175.785 168.556 175.703V175.703Z" fill="#E6E6E6"/>
<path d="M202.046 186.34C202.22 186.374 202.4 186.337 202.548 186.239C202.695 186.141 202.798 185.988 202.833 185.814L203.196 183.997C203.231 183.823 203.195 183.642 203.097 183.495C202.998 183.347 202.845 183.245 202.671 183.21L197.411 182.158C197.237 182.124 197.057 182.16 196.909 182.258C196.762 182.357 196.659 182.51 196.624 182.683L196.261 184.501C196.244 184.587 196.244 184.676 196.261 184.762C196.278 184.848 196.312 184.93 196.36 185.003C196.409 185.076 196.472 185.139 196.545 185.188C196.618 185.237 196.7 185.271 196.786 185.288L202.046 186.34Z" fill="#E6E6E6"/>
</g>
<defs>
<clipPath id="clip0_1181_69">
<rect width="300" height="232.021" fill="white"/>
</clipPath>
</defs>
</svg>
