<svg width="25" height="21" viewBox="0 0 25 21" fill="none" xmlns="http://www.w3.org/2000/svg">
<g clip-path="url(#clip0_1182_126)">
<path d="M4.73183 12.7468L1.0332 15.7356V3.7804C1.0332 3.58223 1.11193 3.39218 1.25205 3.25205C1.39218 3.11193 1.58223 3.0332 1.7804 3.0332H13.7356C13.9337 3.0332 14.1238 3.11193 14.2639 3.25205C14.404 3.39218 14.4828 3.58223 14.4828 3.7804V11.9996C14.4828 12.1977 14.404 12.3878 14.2639 12.5279C14.1238 12.6681 13.9337 12.7468 13.7356 12.7468H4.73183Z" stroke="#9B713F" stroke-width="1.5" stroke-linecap="round" stroke-linejoin="round"/>
<path d="M5.5166 12.747V16.483C5.5166 16.6811 5.59532 16.8712 5.73545 17.0113C5.87558 17.1515 6.06563 17.2302 6.2638 17.2302H15.2675L18.9662 20.219V8.2638C18.9662 8.06563 18.8874 7.87558 18.7473 7.73545C18.6072 7.59532 18.4171 7.5166 18.219 7.5166H14.483" stroke="#9B713F" stroke-width="1.5" stroke-linecap="round" stroke-linejoin="round"/>
<circle cx="21" cy="4" r="3.5" fill="#6DD331" stroke="#9B713F"/>
</g>
<defs>
<clipPath id="clip0_1182_126">
<rect width="25" height="21" fill="white"/>
</clipPath>
</defs>
</svg>
