<svg width="11" height="12" viewBox="0 0 11 12" fill="none" xmlns="http://www.w3.org/2000/svg">
<g clip-path="url(#clip0_1188_5)">
<path d="M7.26125 3.73867L3.1868 7.88161C3.05191 8.03048 2.97943 8.22552 2.98437 8.42635C2.98932 8.62718 3.07131 8.81842 3.21336 8.96048C3.35541 9.10253 3.54665 9.18452 3.74748 9.18946C3.94832 9.19441 4.14336 9.12193 4.29223 8.98704L9.1493 4.0615C9.41908 3.76375 9.56403 3.37367 9.55414 2.972C9.54425 2.57034 9.38028 2.18786 9.09617 1.90375C8.81207 1.61965 8.42959 1.45568 8.02792 1.44579C7.62626 1.4359 7.23617 1.58085 6.93843 1.85063L2.08136 6.77617C1.64159 7.21594 1.39453 7.8124 1.39453 8.43432C1.39453 9.05625 1.64159 9.65271 2.08136 10.0925C2.52113 10.5322 3.11759 10.7793 3.73951 10.7793C4.36144 10.7793 4.9579 10.5322 5.39767 10.0925L9.41343 6.0865" stroke="#AF73E5" stroke-linecap="round" stroke-linejoin="round"/>
</g>
<defs>
<clipPath id="clip0_1188_5">
<rect width="11" height="12" fill="white"/>
</clipPath>
</defs>
</svg>
