<svg width="14" height="20" viewBox="0 0 14 20" fill="none" xmlns="http://www.w3.org/2000/svg">
<g clip-path="url(#clip0_1205_16)">
<path d="M6.99962 9.9384L1.41595 5.75064C1.32522 5.68172 1.25154 5.59288 1.20059 5.49097C1.14964 5.38907 1.12277 5.27682 1.12207 5.16289V1.85676C1.12207 1.66191 1.19948 1.47504 1.33726 1.33726C1.47504 1.19948 1.66191 1.12207 1.85676 1.12207H12.1425C12.3373 1.12207 12.5242 1.19948 12.662 1.33726C12.7998 1.47504 12.8772 1.66191 12.8772 1.85676V5.12615C12.8765 5.24008 12.8496 5.35233 12.7987 5.45424C12.7477 5.55615 12.674 5.64499 12.5833 5.71391L6.99962 9.9384Z" stroke="#3B3B3B" stroke-width="1.5" stroke-linecap="round" stroke-linejoin="round"/>
<path d="M6.99962 9.93848L1.41595 14.1262C1.32522 14.1952 1.25154 14.284 1.20059 14.3859C1.14964 14.4878 1.12277 14.6001 1.12207 14.714V18.0201C1.12207 18.215 1.19948 18.4018 1.33726 18.5396C1.47504 18.6774 1.66191 18.7548 1.85676 18.7548H12.1425C12.3373 18.7548 12.5242 18.6774 12.662 18.5396C12.7998 18.4018 12.8772 18.215 12.8772 18.0201V14.7507C12.8765 14.6368 12.8496 14.5245 12.7987 14.4226C12.7477 14.3207 12.674 14.2319 12.5833 14.163L6.99962 9.93848Z" stroke="#3B3B3B" stroke-width="1.5" stroke-linecap="round" stroke-linejoin="round"/>
</g>
<defs>
<clipPath id="clip0_1205_16">
<rect width="14" height="20" fill="white"/>
</clipPath>
</defs>
</svg>
