<svg width="17" height="20" viewBox="0 0 17 20" fill="none" xmlns="http://www.w3.org/2000/svg">
<g clip-path="url(#clip0_1182_130)">
<path d="M2.56051 8.78764C2.5595 8.06914 2.70065 7.35754 2.97583 6.69382C3.25102 6.0301 3.65479 5.42739 4.1639 4.92039C4.67302 4.41339 5.2774 4.01212 5.94226 3.7397C6.60711 3.46728 7.3193 3.32909 8.03779 3.33309C11.0378 3.35582 13.4393 5.84824 13.4393 8.85582V9.3937C13.4393 12.1058 14.0075 13.6816 14.5075 14.5452C14.5606 14.6372 14.5886 14.7415 14.5887 14.8477C14.5888 14.9539 14.561 15.0583 14.508 15.1504C14.4551 15.2424 14.3789 15.319 14.287 15.3723C14.1952 15.4257 14.091 15.4539 13.9848 15.4543H2.01506C1.90885 15.4539 1.80461 15.4257 1.71278 15.3723C1.62094 15.319 1.54474 15.2424 1.4918 15.1504C1.43886 15.0583 1.41104 14.9539 1.41113 14.8477C1.41123 14.7415 1.43923 14.6372 1.49233 14.5452C1.99233 13.6816 2.56051 12.1058 2.56051 9.3937V8.78764Z" stroke="#9B713F" stroke-width="1.5" stroke-linecap="round" stroke-linejoin="round"/>
<path d="M5.57617 15.4541V16.0602C5.57617 16.7031 5.83158 17.3197 6.28622 17.7744C6.74085 18.229 7.35747 18.4844 8.00041 18.4844C8.64336 18.4844 9.25998 18.229 9.71461 17.7744C10.1692 17.3197 10.4247 16.7031 10.4247 16.0602V15.4541" stroke="#9B713F" stroke-width="1.5" stroke-linecap="round" stroke-linejoin="round"/>
<circle cx="13" cy="4" r="3.5" fill="#FD4D96" stroke="#9B713F"/>
</g>
<defs>
<clipPath id="clip0_1182_130">
<rect width="17" height="20" fill="white"/>
</clipPath>
</defs>
</svg>
