<svg width="20" height="20" viewBox="0 0 20 20" fill="none" xmlns="http://www.w3.org/2000/svg">
<path d="M6.81799 17.9324H2.78854C2.59728 17.9324 2.41385 17.8564 2.27861 17.7212C2.14337 17.5859 2.06739 17.4025 2.06739 17.2112V13.1818C2.06706 13.0881 2.0852 12.9954 2.12078 12.9087C2.15636 12.8221 2.20867 12.7434 2.27472 12.677L13.092 1.85967C13.1591 1.79153 13.2391 1.73742 13.3273 1.70049C13.4155 1.66355 13.5102 1.64453 13.6058 1.64453C13.7015 1.64453 13.7962 1.66355 13.8844 1.70049C13.9726 1.73742 14.0526 1.79153 14.1197 1.85967L18.1401 5.8801C18.2082 5.94721 18.2624 6.02719 18.2993 6.1154C18.3362 6.20362 18.3552 6.29829 18.3552 6.39393C18.3552 6.48956 18.3362 6.58424 18.2993 6.67245C18.2624 6.76066 18.2082 6.84065 18.1401 6.90775L7.3228 17.7251C7.25642 17.7911 7.17766 17.8434 7.09104 17.879C7.00442 17.9146 6.91163 17.9327 6.81799 17.9324V17.9324Z" stroke="#9B713F" stroke-width="1.5" stroke-linecap="round" stroke-linejoin="round"/>
<path d="M10.7207 4.23047L15.7688 9.27854" stroke="#9B713F" stroke-width="1.5" stroke-linecap="round" stroke-linejoin="round"/>
<path d="M13.2456 6.75488L4.5918 15.4087" stroke="#9B713F" stroke-width="1.5" stroke-linecap="round" stroke-linejoin="round"/>
<path d="M7.07024 17.8876L2.1123 12.9297" stroke="#9B713F" stroke-width="1.5" stroke-linecap="round" stroke-linejoin="round"/>
</svg>
